<?xml version="1.0" encoding="UTF-8" standalone="no"?>
<svg
   xmlns:dc="http://purl.org/dc/elements/1.1/"
   xmlns:cc="http://creativecommons.org/ns#"
   xmlns:rdf="http://www.w3.org/1999/02/22-rdf-syntax-ns#"
   xmlns:svg="http://www.w3.org/2000/svg"
   xmlns="http://www.w3.org/2000/svg"
   xmlns:sodipodi="http://sodipodi.sourceforge.net/DTD/sodipodi-0.dtd"
   xmlns:inkscape="http://www.inkscape.org/namespaces/inkscape"
   sodipodi:docname="background-white.svg"
   inkscape:version="0.92.2 5c3e80d, 2017-08-06"
   viewBox="0 0 114.66667 114.66667"
   height="114.66667"
   width="114.66667"
   xml:space="preserve"
   id="svg2"
   version="1.1"><sodipodi:namedview
     inkscape:current-layer="svg2"
     inkscape:window-maximized="1"
     inkscape:window-y="0"
     inkscape:window-x="0"
     inkscape:cy="57.333336"
     inkscape:cx="57.333336"
     inkscape:zoom="2.0581394"
     showgrid="false"
     id="namedview70"
     inkscape:window-height="1015"
     inkscape:window-width="1920"
     inkscape:pageshadow="2"
     inkscape:pageopacity="0"
     guidetolerance="10"
     gridtolerance="10"
     objecttolerance="10"
     borderopacity="1"
     bordercolor="#666666"
     pagecolor="#ffffff" /><metadata
     id="metadata72"><rdf:RDF><cc:Work
         rdf:about=""><dc:format>image/svg+xml</dc:format><dc:type
           rdf:resource="http://purl.org/dc/dcmitype/StillImage" /><dc:title></dc:title></cc:Work></rdf:RDF></metadata><defs
     id="defs12"><clipPath
       id="clipPath18"
       clipPathUnits="userSpaceOnUse"><path
         id="path2"
         inkscape:connector-curvature="0"
         d="M 0.301,43 C 0.301,42.364 0.3,1.723 0.3,1.723 v 0 C 0.3,0.938 0.938,0.3 1.723,0.3 v 0 H 43 c 23.584,0 42.7,19.117 42.7,42.7 v 0 C 85.7,66.583 66.584,85.7 43,85.7 v 0 C 19.417,85.7 0.301,66.583 0.301,43" /></clipPath><linearGradient
       id="linearGradient30"
       spreadMethod="pad"
       gradientTransform="matrix(-72.476372,-72.476372,72.476372,-72.476372,73.193359,73.192871)"
       gradientUnits="userSpaceOnUse"
       y2="0"
       x2="1"
       y1="0"
       x1="0"><stop
         id="stop5"
         offset="0"
         style="stop-opacity:1;stop-color:#8d8d8d;opacity:1" /><stop
         id="stop7"
         offset="0.959184"
         style="stop-opacity:1;stop-color:#767676;opacity:1" /><stop
         id="stop9"
         offset="1"
         style="stop-opacity:1;stop-color:#767676;opacity:1" /></linearGradient><linearGradient
       id="linearGradient30-152"
       spreadMethod="pad"
       gradientTransform="matrix(-72.476372,-72.476372,72.476372,-72.476372,73.193359,73.192871)"
       gradientUnits="userSpaceOnUse"
       y2="0"
       x2="1"
       y1="0"
       x1="0"><stop
         id="stop3900"
         offset="0"
         style="stop-opacity:1;stop-color:#8d8d8d;opacity:1" /><stop
         id="stop3902"
         offset="0.959184"
         style="stop-opacity:1;stop-color:#767676;opacity:1" /><stop
         id="stop3904"
         offset="1"
         style="stop-opacity:1;stop-color:#767676;opacity:1" /></linearGradient></defs><g
     id="g67"
     transform="matrix(1.3333333,0,0,-1.3333333,0,114.66667)"
     inkscape:label="harbour-fernschreiber"
     inkscape:groupmode="layer"><g
       id="g18"><g
         id="g16"
         clip-path="url(#clipPath18)"><path
           id="path14"
           inkscape:connector-curvature="0"
           style="fill:url(#linearGradient30-152);stroke:none;opacity:1"
           d="M 0.301,43 C 0.301,42.364 0.3,1.723 0.3,1.723 v 0 C 0.3,0.938 0.938,0.3 1.723,0.3 v 0 H 43 c 23.584,0 42.7,19.117 42.7,42.7 v 0 C 85.7,66.583 66.584,85.7 43,85.7 v 0 C 19.417,85.7 0.301,66.583 0.301,43" /></g></g><g
       id="g20"
       transform="translate(75,43.1621)" /><path
       id="path10"
       d="m 43.000002,75.285148 c -17.583854,0 -31.837875,-12.9659 -31.837875,-28.958836 V 17.367476 7.7148552 c 5.861284,0 10.612625,4.1720268 10.612625,9.5017078 h 21.22525 c 17.583855,0 31.837876,13.115841 31.837876,29.109749 0,15.992936 -14.254021,28.958836 -31.837876,28.958836 z"
       style="opacity:0.9;fill:#b9b9b9;stroke-width:0.97363532;fill-opacity:1"
       inkscape:connector-curvature="0" /><g
       transform="translate(15.3208,45.7656)"
       id="g46"><path
         inkscape:connector-curvature="0"
         id="path48"
         style="fill:#f4f4f4;fill-opacity:1;fill-rule:nonzero;stroke:none;opacity:1"
         d="m 0,0 c 0,-0.729 0.592,-1.322 1.323,-1.322 0.732,0 1.324,0.593 1.324,1.322 0,0.73 -0.592,1.322 -1.324,1.322 C 0.592,1.322 0,0.73 0,0" /></g><g
       transform="translate(21.8672,45.7656)"
       id="g50"><path
         inkscape:connector-curvature="0"
         id="path52"
         style="fill:#f4f4f4;fill-opacity:1;fill-rule:nonzero;stroke:none;opacity:1"
         d="m 0,0 c 0,-0.729 0.591,-1.322 1.321,-1.322 0.732,0 1.323,0.593 1.323,1.322 0,0.73 -0.591,1.322 -1.323,1.322 C 0.591,1.322 0,0.73 0,0" /></g><g
       transform="translate(28.4116,45.7656)"
       id="g54"><path
         inkscape:connector-curvature="0"
         id="path56"
         style="fill:#f4f4f4;fill-opacity:1;fill-rule:nonzero;stroke:none;opacity:1"
         d="m 0,0 c 0,-0.729 0.591,-1.322 1.323,-1.322 0.729,0 1.321,0.593 1.321,1.322 0,0.73 -0.592,1.322 -1.321,1.322 C 0.591,1.322 0,0.73 0,0" /></g><g
       transform="translate(34.9561,45.7656)"
       id="g58"><path
         inkscape:connector-curvature="0"
         id="path60"
         style="fill:#f4f4f4;fill-opacity:1;fill-rule:nonzero;stroke:none;opacity:1"
         d="m 0,0 c 0,-0.729 0.592,-1.322 1.323,-1.322 0.73,0 1.321,0.593 1.321,1.322 0,0.73 -0.591,1.322 -1.321,1.322 C 0.592,1.322 0,0.73 0,0" /></g><g
       transform="translate(41.502,45.7656)"
       id="g62"><path
         inkscape:connector-curvature="0"
         id="path64"
         style="fill:#f4f4f4;fill-opacity:1;fill-rule:nonzero;stroke:none;opacity:1"
         d="m 0,0 c 0,-0.729 0.593,-1.322 1.32,-1.322 0.732,0 1.322,0.593 1.322,1.322 0,0.73 -0.59,1.322 -1.322,1.322 C 0.593,1.322 0,0.73 0,0" /></g><g
       transform="translate(48.0469,45.7656)"
       id="g66"><path
         inkscape:connector-curvature="0"
         id="path68"
         style="fill:#f4f4f4;fill-opacity:1;fill-rule:nonzero;stroke:none;opacity:1"
         d="m 0,0 c 0,-0.729 0.59,-1.322 1.32,-1.322 0.732,0 1.322,0.593 1.322,1.322 0,0.73 -0.59,1.322 -1.322,1.322 C 0.59,1.322 0,0.73 0,0" /></g><g
       transform="translate(54.5898,45.7656)"
       id="g70"><path
         inkscape:connector-curvature="0"
         id="path72"
         style="fill:#f4f4f4;fill-opacity:1;fill-rule:nonzero;stroke:none;opacity:1"
         d="m 0,0 c 0,-0.729 0.594,-1.322 1.32,-1.322 0.735,0 1.326,0.593 1.326,1.322 0,0.73 -0.591,1.322 -1.326,1.322 C 0.594,1.322 0,0.73 0,0" /></g><g
       transform="translate(61.1377,45.7656)"
       id="g74"><path
         inkscape:connector-curvature="0"
         id="path76"
         style="fill:#f4f4f4;fill-opacity:1;fill-rule:nonzero;stroke:none;opacity:1"
         d="m 0,0 c 0,-0.729 0.59,-1.322 1.319,-1.322 0.732,0 1.322,0.593 1.322,1.322 0,0.73 -0.59,1.322 -1.322,1.322 C 0.59,1.322 0,0.73 0,0" /></g><g
       transform="translate(14,26.1348)"
       id="g78"><path
         inkscape:connector-curvature="0"
         id="path80"
         style="fill:#fbfbfb;fill-opacity:1;fill-rule:nonzero;stroke:none;opacity:1"
         d="m 0,0 c 0,-1.465 1.184,-2.646 2.644,-2.646 1.461,0 2.645,1.181 2.645,2.646 0,1.459 -1.184,2.641 -2.645,2.641 C 1.184,2.641 0,1.459 0,0" /></g><g
       transform="translate(20.5444,58.856)"
       id="g82"><path
         inkscape:connector-curvature="0"
         id="path84"
         style="fill:#fbfbfb;fill-opacity:1;fill-rule:nonzero;stroke:none;opacity:1"
         d="m 0,0 c 0,-1.462 1.185,-2.645 2.644,-2.645 1.461,0 2.645,1.183 2.645,2.645 0,1.459 -1.184,2.644 -2.645,2.644 C 1.185,2.644 0,1.459 0,0" /></g><g
       transform="translate(27.0894,52.3101)"
       id="g86"><path
         inkscape:connector-curvature="0"
         id="path88"
         style="fill:#fbfbfb;fill-opacity:1;fill-rule:nonzero;stroke:none;opacity:1"
         d="m 0,0 c 0,-1.461 1.185,-2.644 2.645,-2.644 1.461,0 2.644,1.183 2.644,2.644 0,1.46 -1.183,2.645 -2.644,2.645 C 1.185,2.645 0,1.46 0,0" /></g><g
       transform="translate(27.0894,26.1348)"
       id="g90"><path
         inkscape:connector-curvature="0"
         id="path92"
         style="fill:#fbfbfb;fill-opacity:1;fill-rule:nonzero;stroke:none;opacity:1"
         d="m 0,0 c 0,-1.465 1.185,-2.646 2.645,-2.646 1.461,0 2.644,1.181 2.644,2.646 0,1.459 -1.183,2.641 -2.644,2.641 C 1.185,2.641 0,1.459 0,0" /></g><g
       transform="translate(33.6338,58.856)"
       id="g94"><path
         inkscape:connector-curvature="0"
         id="path96"
         style="fill:#fbfbfb;fill-opacity:1;fill-rule:nonzero;stroke:none;opacity:1"
         d="M 0,0 C 0,-1.462 1.184,-2.645 2.646,-2.645 4.106,-2.645 5.29,-1.462 5.29,0 5.29,1.459 4.106,2.644 2.646,2.644 1.184,2.644 0,1.459 0,0" /></g><g
       transform="translate(40.1758,52.3101)"
       id="g98"><path
         inkscape:connector-curvature="0"
         id="path100"
         style="fill:#fbfbfb;fill-opacity:1;fill-rule:nonzero;stroke:none;opacity:1"
         d="m 0,0 c 0,-1.461 1.187,-2.644 2.646,-2.644 1.461,0 2.648,1.183 2.648,2.644 0,1.46 -1.187,2.645 -2.648,2.645 C 1.187,2.645 0,1.46 0,0" /></g><g
       transform="translate(40.1758,32.6768)"
       id="g102"><path
         inkscape:connector-curvature="0"
         id="path104"
         style="fill:#fbfbfb;fill-opacity:1;fill-rule:nonzero;stroke:none;opacity:1"
         d="m 0,0 c 0,-1.458 1.187,-2.646 2.646,-2.646 1.461,0 2.648,1.188 2.648,2.646 0,1.459 -1.187,2.645 -2.648,2.645 C 1.187,2.645 0,1.459 0,0" /></g><g
       transform="translate(40.1758,26.1348)"
       id="g106"><path
         inkscape:connector-curvature="0"
         id="path108"
         style="fill:#fbfbfb;fill-opacity:1;fill-rule:nonzero;stroke:none;opacity:1"
         d="m 0,0 c 0,-1.465 1.187,-2.646 2.646,-2.646 1.461,0 2.648,1.181 2.648,2.646 0,1.459 -1.187,2.641 -2.648,2.641 C 1.187,2.641 0,1.459 0,0" /></g><g
       transform="translate(46.7236,52.3101)"
       id="g110"><path
         inkscape:connector-curvature="0"
         id="path112"
         style="fill:#fbfbfb;fill-opacity:1;fill-rule:nonzero;stroke:none;opacity:1"
         d="m 0,0 c 0,-1.461 1.184,-2.644 2.644,-2.644 1.461,0 2.645,1.183 2.645,2.644 0,1.46 -1.184,2.645 -2.645,2.645 C 1.184,2.645 0,1.46 0,0" /></g><g
       transform="translate(46.7236,32.6768)"
       id="g114"><path
         inkscape:connector-curvature="0"
         id="path116"
         style="fill:#fbfbfb;fill-opacity:1;fill-rule:nonzero;stroke:none;opacity:1"
         d="m 0,0 c 0,-1.458 1.184,-2.646 2.644,-2.646 1.461,0 2.645,1.188 2.645,2.646 0,1.459 -1.184,2.645 -2.645,2.645 C 1.184,2.645 0,1.459 0,0" /></g><g
       transform="translate(53.2686,58.856)"
       id="g118"><path
         inkscape:connector-curvature="0"
         id="path120"
         style="fill:#fbfbfb;fill-opacity:1;fill-rule:nonzero;stroke:none;opacity:1"
         d="m 0,0 c 0,-1.462 1.183,-2.645 2.643,-2.645 1.461,0 2.645,1.183 2.645,2.645 0,1.459 -1.184,2.644 -2.645,2.644 C 1.183,2.644 0,1.459 0,0" /></g><g
       transform="translate(53.2686,52.3101)"
       id="g122"><path
         inkscape:connector-curvature="0"
         id="path124"
         style="fill:#fbfbfb;fill-opacity:1;fill-rule:nonzero;stroke:none;opacity:1"
         d="m 0,0 c 0,-1.461 1.183,-2.644 2.643,-2.644 1.461,0 2.645,1.183 2.645,2.644 0,1.46 -1.184,2.645 -2.645,2.645 C 1.183,2.645 0,1.46 0,0" /></g><g
       transform="translate(59.8135,39.2217)"
       id="g126"><path
         inkscape:connector-curvature="0"
         id="path128"
         style="fill:#fbfbfb;fill-opacity:1;fill-rule:nonzero;stroke:none;opacity:1"
         d="m 0,0 c 0,-1.459 1.187,-2.646 2.644,-2.646 1.461,0 2.644,1.187 2.644,2.646 0,1.459 -1.183,2.646 -2.644,2.646 C 1.187,2.646 0,1.459 0,0" /></g><g
       transform="translate(59.8135,32.6768)"
       id="g130"><path
         inkscape:connector-curvature="0"
         id="path132"
         style="fill:#fbfbfb;fill-opacity:1;fill-rule:nonzero;stroke:none;opacity:1"
         d="m 0,0 c 0,-1.458 1.187,-2.646 2.644,-2.646 1.461,0 2.644,1.188 2.644,2.646 0,1.459 -1.183,2.645 -2.644,2.645 C 1.187,2.645 0,1.459 0,0" /></g></g></svg>