<?xml version="1.0" encoding="UTF-8" standalone="no"?>
<svg
   xmlns:svg="http://www.w3.org/2000/svg"
   xmlns="http://www.w3.org/2000/svg"
   xmlns:sodipodi="http://sodipodi.sourceforge.net/DTD/sodipodi-0.dtd"
   xmlns:inkscape="http://www.inkscape.org/namespaces/inkscape"
   version="1.1"
   xml:space="preserve"
   width="114.66667"
   height="114.66667"
   viewBox="0 0 114.66667 114.66667"
   inkscape:version="0.92.4 (unknown)"
   sodipodi:docname="harbour-fernschreiber-3.svg">
  <defs>
    <clipPath
   clipPathUnits="userSpaceOnUse"
   id="clipPath18">
      <path
   d="M 0.301,43 C 0.301,42.364 0.3,1.723 0.3,1.723 v 0 C 0.3,0.938 0.938,0.3 1.723,0.3 v 0 H 43 c 23.584,0 42.7,19.117 42.7,42.7 v 0 C 85.7,66.583 66.584,85.7 43,85.7 v 0 C 19.417,85.7 0.301,66.583 0.301,43"
   inkscape:connector-curvature="0"
   id="path2" />
    </clipPath>
    <linearGradient
   x1="0"
   y1="0"
   x2="1"
   y2="0"
   gradientUnits="userSpaceOnUse"
   gradientTransform="matrix(-72.476372,-72.476372,72.476372,-72.476372,73.193359,73.192871)"
   spreadMethod="pad"
   id="linearGradient30">
      <stop
   style="stop-opacity:1;stop-color:#ec7221"
   offset="0"
   id="stop5" />
      <stop
   style="stop-opacity:1;stop-color:#e7454c"
   offset="0.959184"
   id="stop7" />
      <stop
   style="stop-opacity:1;stop-color:#e7454c"
   offset="1"
   id="stop9" />
    </linearGradient>
  </defs>
  <g
   inkscape:groupmode="layer"
   inkscape:label="harbour-fernschreiber"
   transform="matrix(1.3333333,0,0,-1.3333333,0,114.66667)"
   id="g67">
    <g
   id="g18">
      <g
   clip-path="url(#clipPath18)"
   id="g16">
        <path
   d="M 0.301,43 C 0.301,42.364 0.3,1.723 0.3,1.723 v 0 C 0.3,0.938 0.938,0.3 1.723,0.3 v 0 H 43 c 23.584,0 42.7,19.117 42.7,42.7 v 0 C 85.7,66.583 66.584,85.7 43,85.7 v 0 C 19.417,85.7 0.301,66.583 0.301,43"
   style="fill:url(#linearGradient30);stroke:none"
   inkscape:connector-curvature="0"
   id="path14" />
      </g>
    </g>
    <g
   transform="translate(75,43.1621)"
   id="g20" />
    <path
   style="opacity:0.9;fill:#fcba02;fill-opacity:1;stroke-width:0.9930262"
   d="M 42.700457,74.178768 C 24.766404,74.178768 10.2285,60.954638 10.2285,44.643189 V 15.107611 5.2627488 c 5.978017,0 10.823985,4.255117 10.823985,9.6909432 h 21.647972 c 17.934054,0 32.471954,13.377056 32.471954,29.689497 0,16.311449 -14.5379,29.535579 -32.471954,29.535579 z"
   id="path10-3"
   inkscape:connector-curvature="0" /><g
   id="g46"
   transform="translate(15.3208,45.7656)"><path
     d="m 0,0 c 0,-0.729 0.592,-1.322 1.323,-1.322 0.732,0 1.324,0.593 1.324,1.322 0,0.73 -0.592,1.322 -1.324,1.322 C 0.592,1.322 0,0.73 0,0"
     style="fill:#fffda9;fill-opacity:1;fill-rule:nonzero;stroke:none"
     id="path48"
     inkscape:connector-curvature="0" /></g><g
   id="g50"
   transform="translate(21.8672,45.7656)"><path
     d="m 0,0 c 0,-0.729 0.591,-1.322 1.321,-1.322 0.732,0 1.323,0.593 1.323,1.322 0,0.73 -0.591,1.322 -1.323,1.322 C 0.591,1.322 0,0.73 0,0"
     style="fill:#fffda9;fill-opacity:1;fill-rule:nonzero;stroke:none"
     id="path52"
     inkscape:connector-curvature="0" /></g><g
   id="g54"
   transform="translate(28.4116,45.7656)"><path
     d="m 0,0 c 0,-0.729 0.591,-1.322 1.323,-1.322 0.729,0 1.321,0.593 1.321,1.322 0,0.73 -0.592,1.322 -1.321,1.322 C 0.591,1.322 0,0.73 0,0"
     style="fill:#fffda9;fill-opacity:1;fill-rule:nonzero;stroke:none"
     id="path56"
     inkscape:connector-curvature="0" /></g><g
   id="g58"
   transform="translate(34.9561,45.7656)"><path
     d="m 0,0 c 0,-0.729 0.592,-1.322 1.323,-1.322 0.73,0 1.321,0.593 1.321,1.322 0,0.73 -0.591,1.322 -1.321,1.322 C 0.592,1.322 0,0.73 0,0"
     style="fill:#fffda9;fill-opacity:1;fill-rule:nonzero;stroke:none"
     id="path60"
     inkscape:connector-curvature="0" /></g><g
   id="g62"
   transform="translate(41.502,45.7656)"><path
     d="m 0,0 c 0,-0.729 0.593,-1.322 1.32,-1.322 0.732,0 1.322,0.593 1.322,1.322 0,0.73 -0.59,1.322 -1.322,1.322 C 0.593,1.322 0,0.73 0,0"
     style="fill:#fffda9;fill-opacity:1;fill-rule:nonzero;stroke:none"
     id="path64"
     inkscape:connector-curvature="0" /></g><g
   id="g66"
   transform="translate(48.0469,45.7656)"><path
     d="m 0,0 c 0,-0.729 0.59,-1.322 1.32,-1.322 0.732,0 1.322,0.593 1.322,1.322 0,0.73 -0.59,1.322 -1.322,1.322 C 0.59,1.322 0,0.73 0,0"
     style="fill:#fffda9;fill-opacity:1;fill-rule:nonzero;stroke:none"
     id="path68"
     inkscape:connector-curvature="0" /></g><g
   id="g70"
   transform="translate(54.5898,45.7656)"><path
     d="m 0,0 c 0,-0.729 0.594,-1.322 1.32,-1.322 0.735,0 1.326,0.593 1.326,1.322 0,0.73 -0.591,1.322 -1.326,1.322 C 0.594,1.322 0,0.73 0,0"
     style="fill:#fffda9;fill-opacity:1;fill-rule:nonzero;stroke:none"
     id="path72"
     inkscape:connector-curvature="0" /></g><g
   id="g74"
   transform="translate(61.1377,45.7656)"><path
     d="m 0,0 c 0,-0.729 0.59,-1.322 1.319,-1.322 0.732,0 1.322,0.593 1.322,1.322 0,0.73 -0.59,1.322 -1.322,1.322 C 0.59,1.322 0,0.73 0,0"
     style="fill:#fffda9;fill-opacity:1;fill-rule:nonzero;stroke:none"
     id="path76"
     inkscape:connector-curvature="0" /></g><g
   id="g78"
   transform="translate(14,26.1348)"><path
     d="m 0,0 c 0,-1.465 1.184,-2.646 2.644,-2.646 1.461,0 2.645,1.181 2.645,2.646 0,1.459 -1.184,2.641 -2.645,2.641 C 1.184,2.641 0,1.459 0,0"
     style="fill:#fffee3;fill-opacity:1;fill-rule:nonzero;stroke:none"
     id="path80"
     inkscape:connector-curvature="0" /></g><g
   id="g82"
   transform="translate(20.5444,58.856)"><path
     d="m 0,0 c 0,-1.462 1.185,-2.645 2.644,-2.645 1.461,0 2.645,1.183 2.645,2.645 0,1.459 -1.184,2.644 -2.645,2.644 C 1.185,2.644 0,1.459 0,0"
     style="fill:#fffee3;fill-opacity:1;fill-rule:nonzero;stroke:none"
     id="path84"
     inkscape:connector-curvature="0" /></g><g
   id="g86"
   transform="translate(27.0894,52.3101)"><path
     d="m 0,0 c 0,-1.461 1.185,-2.644 2.645,-2.644 1.461,0 2.644,1.183 2.644,2.644 0,1.46 -1.183,2.645 -2.644,2.645 C 1.185,2.645 0,1.46 0,0"
     style="fill:#fffee3;fill-opacity:1;fill-rule:nonzero;stroke:none"
     id="path88"
     inkscape:connector-curvature="0" /></g><g
   id="g90"
   transform="translate(27.0894,26.1348)"><path
     d="m 0,0 c 0,-1.465 1.185,-2.646 2.645,-2.646 1.461,0 2.644,1.181 2.644,2.646 0,1.459 -1.183,2.641 -2.644,2.641 C 1.185,2.641 0,1.459 0,0"
     style="fill:#fffee3;fill-opacity:1;fill-rule:nonzero;stroke:none"
     id="path92"
     inkscape:connector-curvature="0" /></g><g
   id="g94"
   transform="translate(33.6338,58.856)"><path
     d="M 0,0 C 0,-1.462 1.184,-2.645 2.646,-2.645 4.106,-2.645 5.29,-1.462 5.29,0 5.29,1.459 4.106,2.644 2.646,2.644 1.184,2.644 0,1.459 0,0"
     style="fill:#fffee3;fill-opacity:1;fill-rule:nonzero;stroke:none"
     id="path96"
     inkscape:connector-curvature="0" /></g><g
   id="g98"
   transform="translate(40.1758,52.3101)"><path
     d="m 0,0 c 0,-1.461 1.187,-2.644 2.646,-2.644 1.461,0 2.648,1.183 2.648,2.644 0,1.46 -1.187,2.645 -2.648,2.645 C 1.187,2.645 0,1.46 0,0"
     style="fill:#fffee3;fill-opacity:1;fill-rule:nonzero;stroke:none"
     id="path100"
     inkscape:connector-curvature="0" /></g><g
   id="g102"
   transform="translate(40.1758,32.6768)"><path
     d="m 0,0 c 0,-1.458 1.187,-2.646 2.646,-2.646 1.461,0 2.648,1.188 2.648,2.646 0,1.459 -1.187,2.645 -2.648,2.645 C 1.187,2.645 0,1.459 0,0"
     style="fill:#fffee3;fill-opacity:1;fill-rule:nonzero;stroke:none"
     id="path104"
     inkscape:connector-curvature="0" /></g><g
   id="g106"
   transform="translate(40.1758,26.1348)"><path
     d="m 0,0 c 0,-1.465 1.187,-2.646 2.646,-2.646 1.461,0 2.648,1.181 2.648,2.646 0,1.459 -1.187,2.641 -2.648,2.641 C 1.187,2.641 0,1.459 0,0"
     style="fill:#fffee3;fill-opacity:1;fill-rule:nonzero;stroke:none"
     id="path108"
     inkscape:connector-curvature="0" /></g><g
   id="g110"
   transform="translate(46.7236,52.3101)"><path
     d="m 0,0 c 0,-1.461 1.184,-2.644 2.644,-2.644 1.461,0 2.645,1.183 2.645,2.644 0,1.46 -1.184,2.645 -2.645,2.645 C 1.184,2.645 0,1.46 0,0"
     style="fill:#fffee3;fill-opacity:1;fill-rule:nonzero;stroke:none"
     id="path112"
     inkscape:connector-curvature="0" /></g><g
   id="g114"
   transform="translate(46.7236,32.6768)"><path
     d="m 0,0 c 0,-1.458 1.184,-2.646 2.644,-2.646 1.461,0 2.645,1.188 2.645,2.646 0,1.459 -1.184,2.645 -2.645,2.645 C 1.184,2.645 0,1.459 0,0"
     style="fill:#fffee3;fill-opacity:1;fill-rule:nonzero;stroke:none"
     id="path116"
     inkscape:connector-curvature="0" /></g><g
   id="g118"
   transform="translate(53.2686,58.856)"><path
     d="m 0,0 c 0,-1.462 1.183,-2.645 2.643,-2.645 1.461,0 2.645,1.183 2.645,2.645 0,1.459 -1.184,2.644 -2.645,2.644 C 1.183,2.644 0,1.459 0,0"
     style="fill:#fffee3;fill-opacity:1;fill-rule:nonzero;stroke:none"
     id="path120"
     inkscape:connector-curvature="0" /></g><g
   id="g122"
   transform="translate(53.2686,52.3101)"><path
     d="m 0,0 c 0,-1.461 1.183,-2.644 2.643,-2.644 1.461,0 2.645,1.183 2.645,2.644 0,1.46 -1.184,2.645 -2.645,2.645 C 1.183,2.645 0,1.46 0,0"
     style="fill:#fffee3;fill-opacity:1;fill-rule:nonzero;stroke:none"
     id="path124"
     inkscape:connector-curvature="0" /></g><g
   id="g126"
   transform="translate(59.8135,39.2217)"><path
     d="m 0,0 c 0,-1.459 1.187,-2.646 2.644,-2.646 1.461,0 2.644,1.187 2.644,2.646 0,1.459 -1.183,2.646 -2.644,2.646 C 1.187,2.646 0,1.459 0,0"
     style="fill:#fffee3;fill-opacity:1;fill-rule:nonzero;stroke:none"
     id="path128"
     inkscape:connector-curvature="0" /></g><g
   id="g130"
   transform="translate(59.8135,32.6768)"><path
     d="m 0,0 c 0,-1.458 1.187,-2.646 2.644,-2.646 1.461,0 2.644,1.188 2.644,2.646 0,1.459 -1.183,2.645 -2.644,2.645 C 1.187,2.645 0,1.459 0,0"
     style="fill:#fffee3;fill-opacity:1;fill-rule:nonzero;stroke:none"
     id="path132"
     inkscape:connector-curvature="0" /></g>
  </g>
</svg>
