<?xml version="1.0" encoding="UTF-8" standalone="no"?>
<svg
   xmlns:dc="http://purl.org/dc/elements/1.1/"
   xmlns:cc="http://creativecommons.org/ns#"
   xmlns:rdf="http://www.w3.org/1999/02/22-rdf-syntax-ns#"
   xmlns:svg="http://www.w3.org/2000/svg"
   xmlns="http://www.w3.org/2000/svg"
   id="svg19"
   version="1.1"
   height="114.667"
   width="114.667">
  <metadata
     id="metadata23">
    <rdf:RDF>
      <cc:Work
         rdf:about="">
        <dc:format>image/svg+xml</dc:format>
        <dc:type
           rdf:resource="http://purl.org/dc/dcmitype/StillImage" />
        <dc:title></dc:title>
      </cc:Work>
    </rdf:RDF>
  </metadata>
  <defs
     id="defs9">
    <linearGradient
       id="a"
       spreadMethod="pad"
       gradientTransform="rotate(-135 51.755 21.438) scale(102.49707)"
       gradientUnits="userSpaceOnUse"
       y2="0"
       x2="1"
       y1="0"
       x1="0">
      <stop
         id="stop2"
         stop-color="#ec7221"
         offset="0" />
      <stop
         id="stop4"
         stop-color="#e7454c"
         offset=".959" />
      <stop
         id="stop6"
         stop-color="#e7454c"
         offset="1" />
    </linearGradient>
  </defs>
  <path
     id="path11"
     transform="matrix(1.33333 0 0 -1.33333 0 114.667)"
     fill="url(#a)"
     d="M.301 43L.3 1.723C.3.938.938.3 1.723.3H43C66.584.3 85.7 19.417 85.7 43c0 23.583-19.116 42.7-42.7 42.7C19.417 85.7.301 66.583.301 43" />
  <path
     id="path13"
     fill="#fcba02"
     d="M100 57.117c0-23.408-19.043-42.45-42.45-42.45-23.409 0-42.451 19.042-42.451 42.45v42.45h42.45c23.408 0 42.451-19.042 42.451-42.45" />
  <path
     style="fill:#fffda9"
     id="path15"
     d="m 81.517,53.646 c -0.0573,2.403947 3.578298,2.403947 3.521,0 0.0573,-2.403947 -3.578298,-2.403947 -3.521,0 m -8.73,0 c 0.09308,2.256331 3.433918,2.256331 3.527,0 0,-2.351999 -3.528,-2.351999 -3.528,0 m -8.723,0 c 0,2.347999 3.522,2.347999 3.522,0 0,-2.347999 -3.522,-2.347999 -3.522,0 m -8.727,0 c -0.101696,2.44622 3.621306,2.447277 3.521,10e-4 -0.09236,-2.252442 -3.427362,-2.253389 -3.521,-10e-4 m -8.728,0 c -0.05733,2.406646 3.58233,2.406646 3.525,0 -0.05466,-2.294686 -3.470338,-2.294686 -3.525,0 m -8.726,0 c 6.67e-4,2.350666 3.526667,2.349666 3.526,-10e-4 0,-2.350666 -3.526,-2.350666 -3.526,0 m -8.726,0 c -0.05801,2.406625 3.581643,2.407658 3.525,10e-4 -0.05466,-2.294686 -3.470338,-2.294686 -3.525,0 m -8.728,0 c 0,2.353332 3.53,2.353332 3.53,0 0,-0.973 -0.79,-1.763 -1.766,-1.763 -0.975,0 -1.764,0.79 -1.764,1.763" />
  <path
     style="fill:#fffee3"
     id="path17"
     d="m 79.751,79.82 c -0.08052,4.780502 7.131515,4.780502 7.051,0 -0.109325,-4.589371 -6.940675,-4.589371 -7.05,0 m 0,-8.722 c 0.0022,1.946378 1.578625,3.524144 3.525,3.528 4.703331,0 4.703331,-7.055 0,-7.055 -1.946832,0.0022 -3.524347,1.580167 -3.526,3.527 m 0,-8.727 c 0.0017,1.946995 1.579006,3.525244 3.526,3.528 4.703998,0 4.703998,-7.056 0,-7.056 -1.946994,0.0028 -3.524348,1.581005 -3.526,3.528 M 71.025,44.92 c 0.0018,3.140416 3.799089,4.710649 6.018485,2.489364 C 79.262881,45.188079 77.689416,41.39211 74.549,41.393 c -1.946965,0.0011 -3.524552,1.580034 -3.524,3.527 m 0,-8.728 c -0.0013,4.699998 7.048667,4.701998 7.05,0.002 0.0013,-4.699998 -7.048667,-4.701998 -7.05,-0.002 m -8.727,34.906 c 0.0011,1.946833 1.578168,3.525243 3.525,3.528 4.624805,-0.07787 4.624805,-6.977129 0,-7.055 -1.946899,0.0017 -3.524449,1.580101 -3.525,3.527 m 0,-26.178 c 0,1.946804 1.578196,3.525 3.525,3.525 4.701331,0 4.701331,-7.052 0,-7.052 -1.947127,0.0011 -3.525,1.579872 -3.525,3.527 m -8.73,34.9 c -5.53e-4,1.948689 1.579311,3.528553 3.528,3.528 1.94947,0.0017 3.530553,-1.578529 3.53,-3.528 -0.0033,-1.946737 -1.583261,-3.522659 -3.53,-3.521 -1.946186,-0.0011 -3.525241,1.574816 -3.528,3.521 m 0,-8.722 c 0.0028,1.947319 1.580681,3.525246 3.528,3.528 1.9481,-0.0017 3.527244,-1.579902 3.53,-3.528 -0.0022,-1.948165 -1.581834,-3.52645 -3.53,-3.527 -1.947613,0.0011 -3.526345,1.579387 -3.528,3.527 m 0,-26.178 c 0.0017,1.947289 1.58071,3.525001 3.528,3.525 1.947842,5.53e-4 3.527792,-1.577159 3.53,-3.525 -0.109388,-4.594641 -6.948612,-4.594641 -7.058,0 m -8.723,-8.728 c -5.53e-4,1.948528 1.579472,3.528105 3.528,3.527 4.701331,0 4.701331,-7.052 0,-7.052 -1.947518,-5.52e-4 -3.526896,1.577482 -3.528,3.525 M 36.12,79.82 c -0.0017,1.948757 1.578243,3.529106 3.527,3.528 1.948435,0.0011 3.527766,-1.579567 3.525,-3.528 -5.52e-4,-1.945928 -1.579072,-3.522658 -3.525,-3.521 -1.946252,-0.0017 -3.525344,1.574748 -3.527,3.521 m 0,-34.9 c 0.0013,4.701331 7.053333,4.699331 7.052,-0.002 -0.0013,-4.701331 -7.053333,-4.699331 -7.052,0.002 m -8.726,-8.728 c -6.67e-4,4.701331 7.051333,4.702331 7.052,10e-4 6.67e-4,-4.701331 -7.051333,-4.702331 -7.052,-10e-4 M 18.667,79.82 c -0.0022,1.948204 1.576795,3.528554 3.525,3.528 4.699998,0 4.699998,-7.05 0,-7.05 -1.94609,-0.0011 -3.524448,1.57591 -3.525,3.522" />
</svg>
