<?xml version="1.0" encoding="UTF-8" standalone="no"?>
<svg
   xmlns:dc="http://purl.org/dc/elements/1.1/"
   xmlns:cc="http://creativecommons.org/ns#"
   xmlns:rdf="http://www.w3.org/1999/02/22-rdf-syntax-ns#"
   xmlns:svg="http://www.w3.org/2000/svg"
   xmlns="http://www.w3.org/2000/svg"
   xml:space="preserve"
   style="enable-background:new 0 0 32 32;"
   viewBox="0 0 32 32"
   height="32"
   width="32"
   y="0px"
   x="0px"
   id="Layer_1"
   version="1.1"><metadata
   id="metadata19"><rdf:RDF><cc:Work
       rdf:about=""><dc:format>image/svg+xml</dc:format><dc:type
         rdf:resource="http://purl.org/dc/dcmitype/StillImage" /><dc:title></dc:title></cc:Work></rdf:RDF></metadata><defs
   id="defs17" />

<path
   id="rect853-3-7"
   d="m 5.2218178,19.08774 c -2.1185651,2.118565 -2.1185651,5.573984 -4e-7,7.692548 2.1185648,2.118565 5.5739836,2.118565 7.6925486,0 l 4.866883,-4.866883 c 2.118565,-2.118565 2.118565,-5.573984 0,-7.692549 -2.118564,-2.118564 -5.573983,-2.118564 -7.692548,0 z m 1.4142135,1.414213 4.8668837,-4.866883 c 1.359552,-1.359552 3.504569,-1.359552 4.864121,0 1.359553,1.359553 1.359552,3.504569 0,4.864121 l -4.866884,4.866883 c -1.359552,1.359553 -3.5045682,1.359554 -4.864121,10e-7 -1.3595521,-1.359552 -1.3595521,-3.504569 3e-7,-4.864122 z"
   style="color:#000000;font-style:normal;font-variant:normal;font-weight:normal;font-stretch:normal;font-size:medium;line-height:normal;font-family:sans-serif;font-variant-ligatures:normal;font-variant-position:normal;font-variant-caps:normal;font-variant-numeric:normal;font-variant-alternates:normal;font-feature-settings:normal;text-indent:0;text-align:start;text-decoration:none;text-decoration-line:none;text-decoration-style:solid;text-decoration-color:#000000;letter-spacing:normal;word-spacing:normal;text-transform:none;writing-mode:lr-tb;direction:ltr;text-orientation:mixed;dominant-baseline:auto;baseline-shift:baseline;text-anchor:start;white-space:normal;shape-padding:0;clip-rule:nonzero;display:inline;overflow:visible;visibility:visible;opacity:0.6;isolation:auto;mix-blend-mode:normal;color-interpolation:sRGB;color-interpolation-filters:linearRGB;solid-color:#000000;solid-opacity:1;vector-effect:none;fill:#ffffff;fill-opacity:1;fill-rule:nonzero;stroke:none;stroke-width:2;stroke-linecap:round;stroke-linejoin:round;stroke-miterlimit:4;stroke-dasharray:none;stroke-dashoffset:0;stroke-opacity:1;color-rendering:auto;image-rendering:auto;shape-rendering:auto;text-rendering:auto;enable-background:accumulate" /><path
   id="rect853-6"
   d="m 17.290288,17.295275 c -0.604056,-0.141842 -1.179293,-0.451814 -1.657396,-0.929916 -1.359554,-1.359552 -1.358171,-3.503188 0.0014,-4.86274 l -1.7e-5,-4e-6 4.866884,-4.8668837 c 1.359553,-1.3595528 3.503187,-1.3609338 4.86274,-0.00138 1.359553,1.3595528 1.359553,3.5045687 1e-6,4.8641217 l -4.866884,4.866883 c -0.354012,0.354012 -0.76128,0.615843 -1.19407,0.785494 0.09971,0.686342 0.114666,1.379464 -0.04531,2.08658 0.973641,-0.21685 1.898514,-0.702806 2.653575,-1.457867 l 4.866884,-4.866884 c 2.118565,-2.118565 2.118564,-5.5739835 0,-7.6925482 -2.118565,-2.1185648 -5.572602,-2.1171831 -7.691168,0.00138 l -4.866865,4.8668902 c -2.118564,2.118564 -2.119946,5.572602 -0.0014,7.691167 0.825683,0.825683 1.854427,1.329567 2.927951,1.511652 0.245536,-0.61844 0.301651,-1.33063 0.143675,-1.995945 z"
   style="color:#000000;font-style:normal;font-variant:normal;font-weight:normal;font-stretch:normal;font-size:medium;line-height:normal;font-family:sans-serif;font-variant-ligatures:normal;font-variant-position:normal;font-variant-caps:normal;font-variant-numeric:normal;font-variant-alternates:normal;font-feature-settings:normal;text-indent:0;text-align:start;text-decoration:none;text-decoration-line:none;text-decoration-style:solid;text-decoration-color:#000000;letter-spacing:normal;word-spacing:normal;text-transform:none;writing-mode:lr-tb;direction:ltr;text-orientation:mixed;dominant-baseline:auto;baseline-shift:baseline;text-anchor:start;white-space:normal;shape-padding:0;clip-rule:nonzero;display:inline;overflow:visible;visibility:visible;opacity:1;isolation:auto;mix-blend-mode:normal;color-interpolation:sRGB;color-interpolation-filters:linearRGB;solid-color:#000000;solid-opacity:1;vector-effect:none;fill:#ffffff;fill-opacity:1;fill-rule:nonzero;stroke:none;stroke-width:2;stroke-linecap:round;stroke-linejoin:round;stroke-miterlimit:4;stroke-dasharray:none;stroke-dashoffset:0;stroke-opacity:1;color-rendering:auto;image-rendering:auto;shape-rendering:auto;text-rendering:auto;enable-background:accumulate" /></svg>