<?xml version="1.0" encoding="UTF-8" standalone="no"?>
<svg
   xmlns="http://www.w3.org/2000/svg"
   xmlns:sodipodi="http://sodipodi.sourceforge.net/DTD/sodipodi-0.dtd"
   xmlns:inkscape="http://www.inkscape.org/namespaces/inkscape"
   version="1.1"
   width="32px"
   height="32px"
   viewBox="0 0 32 32"
   style="enable-background:new 0 0 32 32;"
   xml:space="preserve"
   inkscape:version="0.92.4 (unknown)"
   sodipodi:docname="icon-verified.svg">
  <rect
      style="opacity:0;fill:#ffffff;"
      width="32"
      height="32"/>
  <path
      style="opacity:1;fill:#039be5;fill-opacity:1;stroke:#ffffff;stroke-width:0;stroke-miterlimit:4;stroke-dasharray:none;paint-order:markers fill stroke"
      d="m 16,0.5 c -2.139766,0 -2.562241,3.72027517 -4.539128,4.53912797 -1.9776441,0.8191667 -4.908136,-1.5136233 -6.4217591,0 -1.5136231,1.513623 0.819167,4.4441148 0,6.4217592 C 4.2202751,13.437745 0.5,13.86022 0.5,16 c 0,2.139765 3.7202751,2.562242 4.5391279,4.539127 0.819167,1.977644 -1.513623,4.908137 0,6.421759 1.5136231,1.513623 4.444115,-0.819166 6.4217591,0 1.976887,0.818854 2.4,4.539128 4.539128,4.539128 2.139766,0 2.562242,-3.720274 4.539128,-4.539128 1.977643,-0.819166 4.908136,1.513623 6.421759,0 1.513622,-1.513622 -0.819166,-4.444115 0,-6.421759 0.818854,-1.976885 4.539128,-2.4 4.539128,-4.539127 0,-2.139766 -3.720274,-2.562241 -4.539128,-4.539128 -0.819166,-1.9776444 1.513622,-4.9081362 0,-6.4217592 -1.513623,-1.5136232 -4.444116,0.8191667 -6.421759,0 C 18.562257,4.220246 18.139781,0.5 16,0.5 Z"
      inkscape:connector-curvature="0"
      sodipodi:nodetypes="sssssssssssssssss"/>
  <path
      style="fill:#ffffff;"
      d="M15.611,17.738c-0.389,0.389-1.025,0.389-1.415,0l-3.164-3.163c-0.389-0.389-1.025-0.389-1.414,0 L8.62,15.574c-0.389,0.389-0.389,1.025,0,1.414l3.164,3.164c0.389,0.389,1.025,1.025,1.414,1.414l0.277,0.277 c0.765,0.766,1.935,0.924,2.885-0.026l0.25-0.25c0.389-0.389,1.025-1.025,1.414-1.414l6.075-6.075c0.389-0.389,0.389-1.025,0-1.414 l-1-1c-0.389-0.389-1.025-0.389-1.414,0L15.611,17.738z"/>
</svg>
