<?xml version="1.0" encoding="UTF-8" standalone="no"?>
<svg
   xmlns:dc="http://purl.org/dc/elements/1.1/"
   xmlns:cc="http://creativecommons.org/ns#"
   xmlns:rdf="http://www.w3.org/1999/02/22-rdf-syntax-ns#"
   xmlns:svg="http://www.w3.org/2000/svg"
   xmlns="http://www.w3.org/2000/svg"
   xml:space="preserve"
   style="enable-background:new 0 0 64 64;"
   viewBox="0 0 64 64"
   y="0px"
   x="0px"
   id="Layer_1"
   version="1.1"><metadata
   id="metadata17"><rdf:RDF><cc:Work
       rdf:about=""><dc:format>image/svg+xml</dc:format><dc:type
         rdf:resource="http://purl.org/dc/dcmitype/StillImage" /><dc:title></dc:title></cc:Work></rdf:RDF></metadata><defs
   id="defs15">
	
	
	

		
		
	</defs>

<path
   style="fill:#ffffff"
   d="m 37.855477,15.759299 c -1.73926,0.0029 -4.47725,1.553014 -6.64098,2.8829 -1.6826,1.034172 -3.75291,1.108852 -5.69886,1.124912 h -8.64063 c -1.034,0 -1.875,0.841 -1.875,1.875 v 8.070312 l 2,1.359376 v -9.304688 h 8.51563 c 2.75742,-0.06081 4.84074,-0.2051 6.5836,-1.513027 2.1377,-1.604239 4.80361,-2.501457 7.17616,-2.486973 h 18.51758 c 0.666,0 1.20703,0.541031 1.20703,1.207031 v 31.542969 c 0,0.689 -0.561,1.25 -1.25,1.25 h -39.5 c -0.689,0 -1.25,-0.561 -1.25,-1.25 V 42.08547 l -2,1.359375 v 7.072266 c 0,1.792 1.458,3.25 3.25,3.25 h 39.5 c 1.792,0 3.25,-1.458 3.25,-3.25 V 18.974142 c 0,-1.769 -1.43803,-3.207984 -3.20703,-3.208984 h -18.51758 c -0.4765,0 -0.94899,-0.01047 -1.41992,-0.0059 z"
   id="path6-9" /><path
   id="path11-6"
   d="m 12.995027,29.476688 10.626,7.222 -10.626,7.222 v -14.444 m -2,-1.778 v 18 c 0,1.1 0.744,1.494 1.654,0.876 l 12.875,-8.752 c 0.455,-0.309 0.682,-0.717 0.682,-1.124 0,-0.408 -0.227,-0.815 -0.682,-1.124 l -12.875,-8.751 c -0.91,-0.619 -1.654,-0.225 -1.654,0.875 z"
   style="fill:#ffffff" /><path
   id="path5-0"
   d="m 15.000437,21.683979 v -6.5 c 0,-1.832003 1.6,-3.500003 3.357,-3.500003 h 10.636 c 1.967,0 3.809,0.854 4.848,2.238003 l 3.457,2.756 c -2.99546,1.819905 -4.21018,2.916329 -6.43718,3.672261 -5.13259,1.742208 -10.47736,1.018549 -15.86082,1.333739 z"
   style="opacity:0.6;fill:#ffffff" /><path
   id="path9-3-6"
   d="m 3.3670166,11.247132 c -0.004,1.278302 0.0179,17.502612 0.0179,17.502612 v 0.0059 0.0059 c 0.0626,4.141039 2.28159,6.407836 4.41211,7.382812 2.13052,0.974976 4.2070304,0.853516 4.2070304,0.853516"
   style="color:#000000;fill:none;fill-opacity:1;fill-rule:evenodd;stroke:#ffffff;stroke-width:2;stroke-linecap:round;stroke-miterlimit:4;stroke-dasharray:none" /></svg>