<svg xmlns="http://www.w3.org/2000/svg" height="64" width="64"><path d="M15.268 13c-1.1 0-2.268.9-2.268 2v34c0 1.1 1.168 2 2.268 2H36.74L51 37.01V15c0-1.1-.633-2-1.732-2h-34zm11.007 7.975a1 1 0 011.016 1.015v5.897c0 1.333-2 1.333-2 0V21.99a1 1 0 01.984-1.015zm11.987 0a1.001 1.001 0 011.013 1.015v5.897c0 1.333-2 1.333-2 0V21.99a1 1 0 01.987-1.015zm8.62 11.863v.002a.999.999 0 01.987 1.29c-1.788 6.11-8.123 10.468-15.586 10.468-7.384 0-13.686-4.29-15.55-10.3-.427-1.29 1.532-1.896 1.91-.591 1.563 5.039 7.031 8.89 13.64 8.89 6.68 0 12.168-3.909 13.666-9.027a1 1 0 01.934-.732z" fill="#fff" fill-opacity=".502"/><path d="M36.74 39.125V51l14.267-14H39.132c-1.1 0-2.392 1.025-2.392 2.125z" fill="#fff"/></svg>