<?xml version="1.0" encoding="UTF-8" standalone="no"?>
<svg
   xmlns:dc="http://purl.org/dc/elements/1.1/"
   xmlns:cc="http://creativecommons.org/ns#"
   xmlns:rdf="http://www.w3.org/1999/02/22-rdf-syntax-ns#"
   xmlns:svg="http://www.w3.org/2000/svg"
   xmlns="http://www.w3.org/2000/svg"
   id="svg6"
   version="1.1"
   width="64"
   height="64">
  <metadata
     id="metadata12">
    <rdf:RDF>
      <cc:Work
         rdf:about="">
        <dc:format>image/svg+xml</dc:format>
        <dc:type
           rdf:resource="http://purl.org/dc/dcmitype/StillImage" />
        <dc:title></dc:title>
      </cc:Work>
    </rdf:RDF>
  </metadata>
  <defs
     id="defs10" />
  <rect
     y="97.898308"
     x="-2.4406779"
     id="icon-m-tablet_1_"
     style="opacity:0;fill:#ffffff"
     width="64"
     height="64" />
  <path
     id="path5-6-5"
     d="m 16.145764,42.08553 h -3.315187 c -1.625,0 -2.946,-1.322 -2.946,-2.946 v -22.072 c 0,-1.625 1.321,-2.946 2.946,-2.946 h 30.073 c 1.624,0 2.946,1.321 2.946,2.946 v 2.8388 h -1.965 v -2.8388 c 0,-0.542 -0.44,-0.982 -0.981,-0.982 h -30.073 c -0.542,0 -0.982,0.44 -0.982,0.982 v 22.072 c 0,0.541 0.44,0.981 0.982,0.981 h 3.315187 z"
     style="opacity:0.6;fill:#ffffff" />
  <path
     id="path5-5-2"
     d="m 51.169423,49.87847 h -30.073 c -1.625,0 -2.946,-1.322 -2.946,-2.946 v -22.072 c 0,-1.625 1.321,-2.946 2.946,-2.946 h 30.073 c 1.624,0 2.946,1.321 2.946,2.946 v 22.072 c 0,1.624 -1.322,2.946 -2.946,2.946 z m -30.073,-26 c -0.542,0 -0.982,0.44 -0.982,0.982 v 22.072 c 0,0.541 0.44,0.981 0.982,0.981 h 30.073 c 0.541,0 0.981,-0.44 0.981,-0.981 v -22.072 c 0,-0.542 -0.44,-0.982 -0.981,-0.982 z"
     style="fill:#ffffff" />
</svg>
